<?xml version="1.0" encoding="iso-8859-1"?>
<!-- Generator: Adobe Illustrator 19.0.0, SVG Export Plug-In . SVG Version: 6.00 Build 0)  -->
<svg version="1.1" id="Layer_1" xmlns="http://www.w3.org/2000/svg" xmlns:xlink="http://www.w3.org/1999/xlink" x="0px" y="0px"
	 viewBox="0 0 512 512" style="enable-background:new 0 0 512 512;" xml:space="preserve">
<path style="fill:#7AC0DE;" d="M256,0c-11.782,0-21.334,9.552-21.334,21.334V78.21c0,11.782,9.552,21.334,21.334,21.334
	c11.782,0,21.334-9.552,21.334-21.334V21.334C277.334,9.552,267.782,0,256,0z"/>
<path style="fill:#5192C9;" d="M256,0v99.544c11.782,0,21.334-9.552,21.334-21.334V21.334C277.334,9.552,267.782,0,256,0z"/>
<path style="fill:#C0FCFF;" d="M327.113,56.876H184.887c-11.782,0-21.334,9.552-21.334,21.334v99.547
	c0,11.782,9.552,21.334,21.334,21.334h142.226c11.782,0,21.334-9.552,21.334-21.334V78.21
	C348.447,66.428,338.895,56.876,327.113,56.876z"/>
<path style="fill:#89D2E8;" d="M327.113,56.876H256v142.215h71.113c11.782,0,21.334-9.552,21.334-21.334V78.21
	C348.447,66.428,338.895,56.876,327.113,56.876z"/>
<path style="fill:#7AC0DE;" d="M341.336,156.435H170.664c-11.782,0-21.334,9.552-21.334,21.334v312.898
	c0,11.782,9.552,21.334,21.334,21.334h170.671c11.782,0,21.334-9.552,21.334-21.334V177.768
	C362.67,165.986,353.118,156.435,341.336,156.435z"/>
<path style="fill:#5192C9;" d="M341.336,156.435H256V512h85.336c11.782,0,21.334-9.552,21.334-21.334V177.768
	C362.67,165.986,353.118,156.435,341.336,156.435z"/>
<rect x="170.671" y="177.768" style="fill:#E6FFFA;" width="170.671" height="170.643"/>
<rect x="256.007" y="177.768" style="fill:#BBFAFF;" width="85.336" height="170.643"/>
<path style="fill:#B66D38;" d="M256,426.656c-11.782,0-21.334,9.552-21.334,21.334v42.676c0,11.782,9.552,21.334,21.334,21.334
	c11.782,0,21.334-9.552,21.334-21.334V447.99C277.334,436.208,267.782,426.656,256,426.656z"/>
<path style="fill:#7AC0DE;" d="M341.336,156.435H170.664c-11.782,0-21.334,9.552-21.334,21.334v170.644
	c0,11.782,9.552,21.334,21.334,21.334h84.785c0.185,0.004,0.364,0.028,0.55,0.028c0.186,0,0.366-0.023,0.55-0.028h84.785
	c11.782,0,21.334-9.552,21.334-21.334V177.768C362.67,165.986,353.118,156.435,341.336,156.435z M320.002,241.77h-42.668v-42.668
	h42.668V241.77z M234.666,199.102v42.668h-42.668v-42.668H234.666z M191.998,284.438h42.668v42.639h-42.668V284.438z
	 M277.334,327.079V284.44h42.668v42.639H277.334z"/>
<path style="fill:#AF2E08;" d="M277.334,490.666V447.99c0-11.782-9.552-21.334-21.334-21.334V512
	C267.782,512,277.334,502.448,277.334,490.666z"/>
<path style="fill:#5192C9;" d="M341.336,156.435H256v213.339c0.186,0,0.366-0.023,0.55-0.028h84.785
	c11.782,0,21.334-9.552,21.334-21.334V177.768C362.67,165.986,353.118,156.435,341.336,156.435z M320.002,327.079h-42.668V284.44
	h42.668V327.079z M320.002,241.77h-42.668v-42.668h42.668V241.77z"/>
<g>
</g>
<g>
</g>
<g>
</g>
<g>
</g>
<g>
</g>
<g>
</g>
<g>
</g>
<g>
</g>
<g>
</g>
<g>
</g>
<g>
</g>
<g>
</g>
<g>
</g>
<g>
</g>
<g>
</g>
</svg>
